<svg height="699.657" viewBox="0 0 908.062 699.657" width="908.062" xmlns="http://www.w3.org/2000/svg"><path d="m844.4 334.856c-2.19-17.165 4.67-34.834.592-51.639-3.137-12.981-12.43-23.819-15.484-36.823-4.487-19.273 5.777-39.066 18.876-53.864 9.009-10.2 20.315-19.456 33.793-21.309 8.322-1.184 16.875.645 24.558 4.037a62.311 62.311 0 0 1 33.5 36.8c1.776 5.268 2.8 10.779 4.984 15.887 3.759 8.8 10.655 15.9 14.946 24.464a46.418 46.418 0 0 1 1.557 37.533c-4.966 12.395-15.39 22.765-16.929 36.03-1.119 9.559 2.468 20.03-2.19 28.453-3.516 6.357-10.755 9.565-17.609 11.969-15.928 5.54-38.22 14.537-54.2 5.972-13.977-7.488-24.365-21.666-26.394-37.51z" fill="#e6e6e6" transform="translate(-56.894 235.814)"/><path d="m931 419.877s17.481-7.052 19.685-11.019 5.289-27.328 5.289-27.328" fill="none" stroke="#d0cde1" stroke-miterlimit="10" stroke-width="3" transform="translate(-98.746 157.992)"/><path d="m832.029 696.9.533-170.4" fill="none" stroke="#d0cde1" stroke-miterlimit="10" stroke-width="3"/><path d="m846.958 361.09c-2.54-19.911 5.417-40.406.687-59.9-3.639-15.057-14.419-27.629-17.961-42.713-5.2-22.356 6.7-45.316 21.9-62.481 10.45-11.83 23.564-22.569 39.2-24.718 9.654-1.373 19.575.748 28.487 4.683a72.279 72.279 0 0 1 38.862 42.686c2.06 6.111 3.248 12.5 5.781 18.428 4.36 10.21 12.359 18.449 17.337 28.377a53.843 53.843 0 0 1 1.806 43.537c-5.76 14.377-17.852 26.407-19.637 41.793-1.3 11.089 2.863 23.235-2.54 33-4.078 7.374-12.476 11.1-20.426 13.883-18.476 6.427-44.334 16.863-62.872 6.928-16.226-8.679-28.275-25.123-30.624-43.503z" fill="#6c63ff" transform="translate(-146.762 153.428)"/><path d="m751.836 696.9v-236.877" fill="none" stroke="#333" stroke-miterlimit="10" stroke-width="3"/><path d="m931 441.264s27.231-10.986 30.664-17.165 8.236-42.569 8.236-42.569" fill="none" stroke="#333" stroke-miterlimit="10" stroke-width="3" transform="translate(-178.903 87.405)"/><rect fill="#2f2e41" height="696.763" rx="25" transform="matrix(.99999701 -.00244346 .00244346 .99999701 277.062 .942)" width="386.018"/><path d="m795.818 756.813a14.349 14.349 0 0 1 -14.293 14.394l-329.839.8a14.349 14.349 0 0 1 -14.369-14.319l-.226-96.917-1.261-522.571a14.349 14.349 0 0 1 14.293-14.395l68.986-.162a30.619 30.619 0 0 0 30.181 25.992l130.34-.313a30.63 30.63 0 0 0 30.17-26.139l70.064-.173a14.349 14.349 0 0 1 14.368 14.319l1.347 523.442z" fill="#fff" transform="translate(-144.768 -99.187)"/><path d="m796.987 719.062a14.529 14.529 0 0 1 -14.343 14.7l-331 .816a14.525 14.525 0 0 1 -14.419-14.62l-.225-98.958h359.75z" fill="#e6e6e6" transform="translate(-145.938 -54.846)"/><rect fill="#fff" height="5.38" rx="2" transform="matrix(.99988735 -.01500927 .01500927 .99988735 423.877 26.528)" width="86.022"/><circle cx="3.231" cy="3.231" fill="#fff" r="3.231" transform="matrix(.99988735 -.01500927 .01500927 .99988735 524.908 23.92)"/><rect fill="#e6e6e6" height="67.941" rx="10.5" width="67.941" x="311.063" y="113.963"/><rect fill="#e6e6e6" height="67.941" rx="10.5" width="67.941" x="394.928" y="113.963"/><rect fill="#e6e6e6" height="67.941" rx="10.5" width="67.941" x="478.793" y="113.963"/><rect fill="#e6e6e6" height="67.941" rx="10.5" width="67.941" x="562.658" y="113.963"/><rect fill="#6c63ff" height="67.917" rx="10.5" width="67.917" x="311.063" y="215.807"/><g fill="#e6e6e6"><rect height="67.917" rx="10.5" width="67.917" x="394.897" y="215.807"/><rect height="67.917" rx="10.5" width="67.917" x="478.732" y="215.807"/><rect height="67.917" rx="10.5" width="67.917" x="562.566" y="215.807"/><rect height="67.941" rx="10.5" width="67.941" x="311.063" y="317.786"/><rect height="67.941" rx="10.5" width="67.941" x="394.928" y="317.786"/><rect height="67.941" rx="10.5" width="67.941" x="478.793" y="317.786"/><rect height="67.941" rx="10.5" width="67.941" x="562.658" y="317.786"/><rect height="67.941" rx="10.5" width="67.941" x="311.063" y="419.698"/><rect height="67.941" rx="10.5" width="67.941" x="394.928" y="419.698"/><rect height="67.941" rx="10.5" width="67.941" x="478.793" y="419.698"/><rect height="67.941" rx="10.5" width="67.941" x="562.658" y="419.698"/></g><rect fill="#6c63ff" height="70.564" rx="10.5" width="70.564" x="305.998" y="588.205"/><rect fill="#6c63ff" height="70.564" rx="10.5" width="70.564" x="393.1" y="588.205"/><rect fill="#6c63ff" height="70.564" rx="10.5" width="70.564" x="480.203" y="588.205"/><rect fill="#6c63ff" height="70.564" rx="10.5" width="70.564" x="567.305" y="588.205"/><path d="m481.177 321.568v15.466l-18.427 27 18.427 11.994s8.19-31.554 12.606-35.268c0 0 6.935-4.948 10.709-11.753s1.887-30.32-16.389-9.284v2.477z" fill="#fda57d" transform="translate(-186.688 -83.395)"/><path d="m334.931 358.353 7.3-14.593a2.7 2.7 0 0 1 2.278-1.5l27.71-1.415a2.7 2.7 0 0 1 2.66 3.673l-7.149 18.482a2.7 2.7 0 0 1 -2.76 1.716l-27.851-2.479a2.7 2.7 0 0 1 -2.188-3.884z" fill="#fda57d" transform="translate(-183.993 -92.287)"/><path d="m196.1 253.4-4.707 13.8 48.335-1.736-18.567-11.14z" fill="#edeef9" transform="translate(-43.112 6.404)"/><path d="m317.75 502.32a45.977 45.977 0 0 1 -3.262 28.323c-6.8 14.232-6.8 29.106 1.857 46.408l2.479 89.725s3.091 42.083 0 50.744 1.214 50.132 1.214 50.132h34.656v-27.852l11.753-82.3v-42.09l21.076 43.939-24.088 101.489 31.554 13 39.6-113.863s-6.865-89.725-31.615-120.658l-4.657-33.732z" fill="#3f3d56" transform="translate(-184.084 -91.699)"/><path d="m319.4 789.583v-22.893h35.268s2.479 9.284 18.567 11.14-7.427 13-7.427 13z" fill="#3f3d56" transform="translate(-184.048 -92.737)"/><path d="m357.36 775.38 6.14-22.08 30.537 9.7s3.336 9.373 18.34 15.475c10.218 4.156-.913 8.935-.913 8.935l-4.017 1.037z" fill="#3f3d56" transform="translate(-182.91 -88.786)"/><path d="m398.292 507.432-80.582-3.262a45.083 45.083 0 0 1 .612 14.613c3.683 8.671 11.592 6.3 11.592 6.3l70.506-2.168z" opacity=".1" transform="translate(-184.055 -91.693)"/><path d="m334 360.68-3.212 2.178a60.459 60.459 0 0 0 -25.563 60.961s17.945 35.127 12.375 70.255 12.375 29.708 12.375 29.708l70.855-2.182 5.259-106.536s42.695 6.072 61.884-8.782l15.467-23.632-23.515-16.229-8.025 11.479s-25.2-5.319-39.042-10.94a59.124 59.124 0 0 0 -20.294-4.346z" fill="#6c63ff" transform="translate(-184.104 -92.215)"/><path d="m334.511 531.47s-4.336 21.659 20.424 57.549" opacity=".1" transform="translate(-183.995 -91.593)"/><path d="m406 414.976s29.7-9.9 42.695-9.9 10.829 5.61 10.829 5.61-20.695 9.238-53.524 4.29z" opacity=".1" transform="translate(-183.733 -92.053)"/><path d="m372.516 342.1-11.823 1.415c-.371 0-.713.512-.913 1.244 2.6 4.687 5.851 7.477 9.384 7.477a7.3 7.3 0 0 0 3.583-1l.9-5.47c.304-1.819-.298-3.766-1.131-3.666z" opacity=".1" transform="translate(-183.901 -92.283)"/><circle cx="180.365" cy="222.619" fill="#fda57d" r="36.091"/><path d="m395.1 294.729-1.847 1.666a6.243 6.243 0 0 0 1.817 10.368s-16.169 16.169-18.417 19.17.371 10.9.371 10.9 7.146 13.158-30.45 10.147c0 0-24.81-5.259-22.18-38.72.261-3.352-5.259-12.044 11.281-16.54a22.763 22.763 0 0 1 17.433-19.772 63.1 63.1 0 0 1 19.571-1.716 24.569 24.569 0 0 1 22.421 24.497z" opacity=".1" transform="translate(-184.033 -92.545)"/><path d="m395.884 292.764s3.834 1.184 4.015 13.76l-5.45-.371s-12.606 33.722-11.281 29.326c4.888-16.169-4.888-13.158-7.146-10.147s.371 10.9.371 10.9 7.146 13.158-30.45 10.147c0 0-24.81-5.259-22.18-38.72.261-3.352-5.259-12.044 11.281-16.54a22.763 22.763 0 0 1 17.4-19.782 63.1 63.1 0 0 1 19.571-1.716c12.729 1.073 23.869 10.417 23.869 23.143z" fill="#72351c" transform="translate(-184.035 -92.547)"/><path d="m987.06 737.56s-15.76-53.5 3-92.88a84.511 84.511 0 0 0 6.83-53 142.133 142.133 0 0 0 -7.51-24.88" fill="none" stroke="#d0cde1" stroke-miterlimit="10" stroke-width="2" transform="translate(-949.817 -40.65)"/><path d="m1001 541.88c0 6.56-11.87 25.57-11.87 25.57s-11.87-19-11.87-25.57a11.875 11.875 0 0 1 23.75 0z" fill="#e6e6e6" transform="translate(-949.817 -40.65)"/><path d="m1020.61 578.2c-3.56 5.5-23.86 15-23.86 15s.37-22.41 3.93-27.92a11.873 11.873 0 0 1 19.93 12.91z" fill="#e6e6e6" transform="translate(-948.817 -40.65)"/><path d="m1019.76 640.27c-5.85 3-28.18.91-28.18.91s11.63-19.16 17.49-22.12a11.871 11.871 0 0 1 10.69 21.2z" fill="#e6e6e6" transform="translate(-949.817 -40.65)"/><path d="m1008.53 687.09c-5.27 3.9-27.62 5.66-27.62 5.66s8.23-20.85 13.5-24.75a11.872 11.872 0 1 1 14.12 19.09z" fill="#e6e6e6" transform="translate(-949.817 -40.65)"/><path d="m971.82 594.49c4.7 4.57 26.62 9.3 26.62 9.3s-5.37-21.77-10.07-26.33a11.87 11.87 0 0 0 -16.55 17z" fill="#e6e6e6" transform="translate(-949.817 -40.65)"/><path d="m959.39 649.41c5.85 3 28.18.91 28.18.91s-11.63-19.16-17.49-22.12a11.871 11.871 0 1 0 -10.69 21.2z" fill="#e6e6e6" transform="translate(-949.817 -40.65)"/><path d="m954.63 704.44c5.27 3.9 27.62 5.66 27.62 5.66s-8.23-20.85-13.5-24.75a11.872 11.872 0 1 0 -14.12 19.09z" fill="#e6e6e6" transform="translate(-949.817 -40.65)"/><path d="m.062 697.34h907.576v1.627h-907.576z" fill="#2f2e41"/></svg>